<?xml version="1.0" encoding="UTF-8" standalone="no"?>
<!-- Created with Inkscape (http://www.inkscape.org/) -->

<svg
     xmlns:dc="http://purl.org/dc/elements/1.1/"
     xmlns:cc="http://creativecommons.org/ns#"
     xmlns:rdf="http://www.w3.org/1999/02/22-rdf-syntax-ns#"
     xmlns:svg="http://www.w3.org/2000/svg"
     xmlns="http://www.w3.org/2000/svg"
     xmlns:sodipodi="http://sodipodi.sourceforge.net/DTD/sodipodi-0.dtd"
     xmlns:inkscape="http://www.inkscape.org/namespaces/inkscape"
     width="40"
     height="40"
     viewBox="0 0 40 40"
     version="1.1"
     id="svg4563"
     inkscape:version="0.92.4 5da689c313, 2019-01-14"
     sodipodi:docname="marker-city.svg">
    <defs
         id="defs4557">
        <filter
             style="color-interpolation-filters:sRGB;"
             inkscape:label="Drop Shadow"
             id="filter5448">
            <feFlood
                 flood-opacity="0.498039"
                 flood-color="rgb(0,0,0)"
                 result="flood"
                 id="feFlood5438" />
            <feComposite
                 in="flood"
                 in2="SourceGraphic"
                 operator="in"
                 result="composite1"
                 id="feComposite5440" />
            <feGaussianBlur
                 in="composite1"
                 stdDeviation="0.5"
                 result="blur"
                 id="feGaussianBlur5442" />
            <feOffset
                 dx="4.57967e-15"
                 dy="4.57967e-15"
                 result="offset"
                 id="feOffset5444" />
            <feComposite
                 in="SourceGraphic"
                 in2="offset"
                 operator="over"
                 result="composite2"
                 id="feComposite5446" />
        </filter>
    </defs>
    <sodipodi:namedview
         id="base"
         pagecolor="#dddddd"
         bordercolor="#666666"
         borderopacity="1.0"
         inkscape:pageopacity="0.0"
         inkscape:pageshadow="2"
         inkscape:zoom="18.323744"
         inkscape:cx="16.052205"
         inkscape:cy="16.231643"
         inkscape:document-units="px"
         inkscape:current-layer="layer1"
         showgrid="true"
         units="px"
         showguides="true"
         inkscape:guide-bbox="true">
        <inkscape:grid
             type="xygrid"
             id="grid5108" />
        <sodipodi:guide
             position="20,20"
             orientation="1,0"
             id="guide5129"
             inkscape:locked="false"
             inkscape:label="Center Y"
             inkscape:color="rgb(0,0,255)" />
        <sodipodi:guide
             position="20,20"
             orientation="0,1"
             id="guide5131"
             inkscape:locked="false"
             inkscape:label="Center X"
             inkscape:color="rgb(0,0,255)" />
    </sodipodi:namedview>
    <metadata
         id="metadata4560">
        <rdf:RDF>
            <cc:Work
                 rdf:about="">
                <dc:format>image/svg+xml</dc:format>
                <dc:type
                     rdf:resource="http://purl.org/dc/dcmitype/StillImage" />
                <dc:title></dc:title>
            </cc:Work>
        </rdf:RDF>
    </metadata>
    <g
         inkscape:label="Layer 1"
         inkscape:groupmode="layer"
         id="layer1"
         transform="translate(0,-286.41665)">
        <circle
             style="fill:#ffffff;fill-opacity:1;stroke:#ff0500;stroke-width:0;stroke-linejoin:round;stroke-miterlimit:4;stroke-dasharray:none;stroke-opacity:1"
             id="path842"
             cx="20"
             cy="306.41666"
             r="12.999999" />
        <path
             style="fill:#1e88e5;fill-opacity:1;stroke:#ff0500;stroke-width:0;stroke-linejoin:round;stroke-miterlimit:4;stroke-dasharray:none;stroke-opacity:1;filter:url(#filter5448)"
             d="M 20 3.3339844 A 16.666665 16.666667 0 0 0 3.3339844 20 A 16.666665 16.666667 0 0 0 20 36.666016 A 16.666665 16.666667 0 0 0 36.666016 20 A 16.666665 16.666667 0 0 0 20 3.3339844 z M 20 7 A 13 13 0 0 1 21.296875 7.0644531 A 13 13 0 0 1 22.582031 7.2597656 A 13 13 0 0 1 23.841797 7.5800781 A 13 13 0 0 1 25.0625 8.0253906 A 13 13 0 0 1 26.232422 8.5917969 A 13 13 0 0 1 27.339844 9.2714844 A 13 13 0 0 1 28.375 10.056641 A 13 13 0 0 1 29.326172 10.943359 A 13 13 0 0 1 30.183594 11.919922 A 13 13 0 0 1 30.939453 12.976562 A 13 13 0 0 1 31.585938 14.103516 A 13 13 0 0 1 32.117188 15.289062 A 13 13 0 0 1 32.525391 16.523438 A 13 13 0 0 1 32.810547 17.791016 A 13 13 0 0 1 32.966797 19.080078 A 13 13 0 0 1 33 20 A 13 13 0 0 1 32.935547 21.296875 A 13 13 0 0 1 32.740234 22.582031 A 13 13 0 0 1 32.419922 23.841797 A 13 13 0 0 1 31.974609 25.0625 A 13 13 0 0 1 31.408203 26.232422 A 13 13 0 0 1 30.728516 27.339844 A 13 13 0 0 1 29.943359 28.375 A 13 13 0 0 1 29.056641 29.326172 A 13 13 0 0 1 28.080078 30.183594 A 13 13 0 0 1 27.023438 30.939453 A 13 13 0 0 1 25.896484 31.585938 A 13 13 0 0 1 24.710938 32.117188 A 13 13 0 0 1 23.476562 32.525391 A 13 13 0 0 1 22.208984 32.810547 A 13 13 0 0 1 20.919922 32.966797 A 13 13 0 0 1 20 33 A 13 13 0 0 1 18.703125 32.935547 A 13 13 0 0 1 17.417969 32.740234 A 13 13 0 0 1 16.158203 32.419922 A 13 13 0 0 1 14.9375 31.974609 A 13 13 0 0 1 13.767578 31.408203 A 13 13 0 0 1 12.660156 30.728516 A 13 13 0 0 1 11.625 29.943359 A 13 13 0 0 1 10.673828 29.056641 A 13 13 0 0 1 9.8164062 28.080078 A 13 13 0 0 1 9.0605469 27.023438 A 13 13 0 0 1 8.4140625 25.896484 A 13 13 0 0 1 7.8828125 24.710938 A 13 13 0 0 1 7.4746094 23.476562 A 13 13 0 0 1 7.1894531 22.208984 A 13 13 0 0 1 7.0332031 20.919922 A 13 13 0 0 1 7 20 A 13 13 0 0 1 7.0644531 18.703125 A 13 13 0 0 1 7.2597656 17.417969 A 13 13 0 0 1 7.5800781 16.158203 A 13 13 0 0 1 8.0253906 14.9375 A 13 13 0 0 1 8.5917969 13.767578 A 13 13 0 0 1 9.2714844 12.660156 A 13 13 0 0 1 10.056641 11.625 A 13 13 0 0 1 10.943359 10.673828 A 13 13 0 0 1 11.919922 9.8164062 A 13 13 0 0 1 12.976562 9.0605469 A 13 13 0 0 1 14.103516 8.4140625 A 13 13 0 0 1 15.289062 7.8828125 A 13 13 0 0 1 16.523438 7.4746094 A 13 13 0 0 1 17.791016 7.1894531 A 13 13 0 0 1 19.080078 7.0332031 A 13 13 0 0 1 20 7 z "
             id="path5133"
             transform="translate(0,286.41665)" />
    </g>
</svg>
