<svg id="exjc5fao5wer1" xmlns="http://www.w3.org/2000/svg" viewBox="-0.200000 -0.430000 283 297"
     shape-rendering="geometricPrecision" text-rendering="geometricPrecision"><style><![CDATA[#exjc5fao5wer3_ts {animation: exjc5fao5wer3_ts__ts 500ms linear 1 normal forwards}@keyframes exjc5fao5wer3_ts__ts { 0% {transform: translate(96.501814px,296.928650px) scale(0.100000,0.100000);animation-timing-function: cubic-bezier(0.420000,0,0.580000,1)} 60% {transform: translate(96.501814px,296.928650px) scale(1,1)} 100% {transform: translate(96.501814px,296.928650px) scale(1,1)} }]]></style><g id="exjc5fao5wer2" transform="matrix(1 0 0 1 -0.19999999999999 -0.35864989999993)"><g id="exjc5fao5wer3_ts" transform="translate(96.501814,296.928650) scale(0.100000,0.100000)"><g id="exjc5fao5wer3" transform="translate(-96.501814,-311.000010)"><circle id="exjc5fao5wer4" r="29.326286" transform="matrix(1 0 0 1 96.50181423412732 110.25441805587272)" fill="rgb(255,255,255)" stroke="none" stroke-width="0"/><path id="exjc5fao5wer5" d="M182.253992,160.619231C144.679688,160.619231,102.523152,182.613945,88.776456,209.190892C86.210405,214.231347,86.210405,214.322992,86.393695,223.854035C93.358688,252.263875,98.307498,281.590160,105.639070,310L212.863303,223.854035C223.860660,212.856678,223.860660,213.773124,225.693553,209.190892C239.440250,182.613945,219.919940,160.619231,181.704124,160.619231ZM164.841510,194.527749C176.755313,194.527749,182.253992,201.217808,178.588206,209.190892C174.372553,217.438910,161.175724,223.854035,150.178367,223.854035C138.264563,223.854035,132.765884,217.163976,136.431670,209.190892C140.647324,200.942874,153.844152,194.527749,164.841510,194.527749Z" transform="matrix(0.98000001907349 0 0 0.93000000715256 -6.51093100000000 22.70001303999999)" fill="rgb(72,153,208)" stroke="none" stroke-width="0.540000"/><path id="exjc5fao5wer6" d="M11.913804,3.342143C5.315389,3.342143,0,8.657532,0,15.255946C0.005224,16.538971,0.006507,16.538971,0.916446,18.921732C4.673877,25.978370,8.156373,32.668429,11.913804,40L22.911161,18.921732C23.818443,16.355682,23.818443,16.355682,23.827607,15.255946C23.827607,8.657532,18.512218,3.342143,11.913804,3.342143ZM11.913804,11.590160C13.929986,11.590161,15.579589,13.239764,15.579589,15.255946C15.579589,17.272128,13.929986,18.921732,11.913804,18.921732C9.897622,18.921732,8.248018,17.272128,8.248018,15.255946C8.248018,13.239764,9.897622,11.590160,11.913804,11.590160Z" transform="matrix(8.10000038146973 0 0 8.10000038146973 0.00000000000003 -13)" fill="rgb(30,136,229)" stroke="rgb(21,101,192)" stroke-width="0.400000"/></g></g></g></svg>