<?xml version="1.0" encoding="UTF-8" standalone="no"?>
<!-- Created with Inkscape (http://www.inkscape.org/) -->

<svg
     xmlns:dc="http://purl.org/dc/elements/1.1/"
     xmlns:cc="http://creativecommons.org/ns#"
     xmlns:rdf="http://www.w3.org/1999/02/22-rdf-syntax-ns#"
     xmlns:svg="http://www.w3.org/2000/svg"
     xmlns="http://www.w3.org/2000/svg"
     xmlns:sodipodi="http://sodipodi.sourceforge.net/DTD/sodipodi-0.dtd"
     xmlns:inkscape="http://www.inkscape.org/namespaces/inkscape"
     width="300"
     height="300"
     viewBox="0 0 300 300"
     version="1.1"
     id="svg8"
     inkscape:version="0.92.4 5da689c313, 2019-01-14"
     sodipodi:docname="user-photo-default.svg">
    <defs
         id="defs2" />
    <sodipodi:namedview
         id="base"
         pagecolor="#ffffff"
         bordercolor="#666666"
         borderopacity="1.0"
         inkscape:pageopacity="0.0"
         inkscape:pageshadow="2"
         inkscape:zoom="2"
         inkscape:cx="113.28266"
         inkscape:cy="184.91881"
         inkscape:document-units="px"
         inkscape:current-layer="svg8"
         showgrid="false"
         showguides="true"
         inkscape:guide-bbox="true">
        <sodipodi:guide
             position="105,148.5"
             orientation="1,0"
             id="guide815"
             inkscape:locked="true"
             inkscape:label=""
             inkscape:color="rgb(0,0,255)" />
        <sodipodi:guide
             position="105,148.5"
             orientation="0,1"
             id="guide817"
             inkscape:locked="true"
             inkscape:label=""
             inkscape:color="rgb(0,0,255)" />
    </sodipodi:namedview>
    <metadata
         id="metadata5">
        <rdf:RDF>
            <cc:Work
                 rdf:about="">
                <dc:format>image/svg+xml</dc:format>
                <dc:type
                     rdf:resource="http://purl.org/dc/dcmitype/StillImage" />
                <dc:title></dc:title>
            </cc:Work>
        </rdf:RDF>
    </metadata>
    <g
         inkscape:label="Layer 1"
         inkscape:groupmode="layer"
         id="layer1" />
    <rect
         style="fill:#448aff;fill-opacity:1;stroke:#ff0500;stroke-width:0;stroke-linejoin:round;stroke-miterlimit:4;stroke-dasharray:none;stroke-opacity:1"
         id="rect840"
         width="300"
         height="300.89999"
         x="0"
         y="1.1080316e-06"
         ry="12.5" />
    <path
         id="path838"
         d="m 149.99999,50.999997 a 43.999998,43.999998 0 0 1 44,43.999998 A 43.999998,43.999998 0 0 1 149.99999,139 43.999998,43.999998 0 0 1 106,94.999995 43.999998,43.999998 0 0 1 149.99999,50.999997 m 44,115.940003 c 0,11.66 -3.08,38.82999 -24.09,69.19 L 160.99999,183 171.34,162.32 C 164.51999,161.55 157.36998,161 149.99999,161 142.63,161 135.48,161.55 128.66,162.32 L 139,183 130.09,236.13 C 109.08,205.76999 106,178.6 106,166.94 79.71,174.64 62,188.49999 62,205 v 44 h 66 11.99 20.01999 11.99 66 v -44 c 0,-16.50001 -17.6,-30.36 -44,-38.06 z"
         inkscape:connector-curvature="0"
         style="fill:#000000" />
</svg>
