<?xml version="1.0" standalone="no"?>
<!DOCTYPE svg PUBLIC "-//W3C//DTD SVG 20010904//EN"
 "http://www.w3.org/TR/2001/REC-SVG-20010904/DTD/svg10.dtd">
<svg version="1.0" xmlns="http://www.w3.org/2000/svg"
 width="700.000000pt" height="700.000000pt" viewBox="0 0 700.000000 700.000000"
 preserveAspectRatio="xMidYMid meet">
<metadata>
Created by potrace 1.11, written by Peter Selinger 2001-2013
</metadata>
<g transform="translate(0.000000,700.000000) scale(0.100000,-0.100000)"
fill="#000000" stroke="none">
<path d="M1329 6996 c-2 -2 -29 -7 -60 -10 -64 -7 -67 -8 -162 -30 -500 -119
-923 -535 -1057 -1041 -71 -268 -61 -584 26 -844 168 -500 607 -883 1119 -974
135 -25 159 -26 573 -26 l382 -1 0 -570 0 -570 -382 -1 c-211 -1 -401 -2 -423
-4 -179 -12 -372 -68 -552 -160 -266 -136 -497 -368 -627 -630 -89 -179 -124
-285 -151 -464 -13 -83 -14 -377 -2 -411 3 -8 8 -33 11 -55 13 -98 68 -271
121 -375 212 -424 583 -709 1046 -805 134 -28 424 -26 559 3 561 121 986 522
1130 1066 16 61 32 129 36 151 3 22 8 233 11 470 2 236 6 431 7 433 2 1 257 3
567 3 l564 0 2 -38 c2 -21 4 -216 7 -433 2 -217 6 -408 9 -425 20 -101 39
-181 62 -251 124 -370 385 -670 740 -851 319 -162 734 -195 1085 -86 47 14 92
30 100 34 8 4 50 23 93 43 396 180 722 592 803 1011 2 11 7 34 10 50 25 112
26 363 3 500 -79 467 -369 858 -798 1074 -97 49 -285 112 -375 126 -11 2 -43
7 -71 11 -75 11 -77 11 -495 13 l-390 1 0 570 0 570 383 1 c371 0 408 1 492
12 100 13 279 58 340 86 11 5 52 23 90 41 418 188 736 600 821 1065 19 104 26
350 12 450 -80 595 -509 1077 -1094 1230 -131 34 -188 40 -379 39 -148 -1
-186 -5 -290 -28 -207 -48 -388 -128 -548 -245 -94 -68 -216 -183 -273 -256
-21 -27 -42 -52 -45 -55 -16 -13 -105 -162 -143 -239 -36 -73 -95 -234 -102
-280 -2 -7 -7 -34 -13 -60 -28 -121 -29 -147 -30 -598 l-1 -383 -570 0 -570 0
-1 363 c0 381 -2 454 -14 527 -96 628 -553 1108 -1170 1232 -88 18 -404 35
-416 24z m224 -780 c135 -16 286 -89 384 -185 92 -90 143 -170 186 -295 20
-58 21 -83 25 -473 l3 -413 -379 0 c-398 0 -444 4 -554 46 -312 119 -493 453
-424 784 50 240 242 446 477 514 49 15 205 36 219 30 3 -1 31 -5 63 -8z m4054
0 c328 -28 591 -302 610 -636 18 -305 -156 -578 -435 -684 -110 -42 -156 -46
-553 -46 l-379 0 -1 88 c-1 321 2 665 7 698 33 225 184 427 391 523 77 36 247
74 288 65 6 -1 38 -5 72 -8z m-1537 -2716 l0 -570 -570 0 -570 0 0 570 0 570
570 0 570 0 0 -570z m-1920 -1726 c0 -423 -6 -475 -67 -604 -107 -225 -327
-374 -575 -387 -115 -6 -202 7 -299 47 -544 221 -578 981 -55 1247 128 65 134
66 576 72 223 3 408 5 413 3 4 -2 7 -172 7 -378z m3533 361 c203 -42 386 -190
475 -383 39 -86 58 -167 61 -267 9 -315 -190 -589 -494 -680 -81 -25 -257 -30
-341 -10 -258 60 -466 269 -519 522 -13 63 -19 358 -15 780 l0 52 83 3 c216 8
683 -3 750 -17z"/>
</g>
</svg>
