<svg version="1.1" viewBox="0 0 40 40" xmlns="http://www.w3.org/2000/svg">
<defs>
<filter id="a" color-interpolation-filters="sRGB">
<feFlood flood-color="rgb(0,0,0)" flood-opacity=".5" result="flood"/>
<feComposite in="flood" in2="SourceGraphic" operator="in" result="composite1"/>
<feGaussianBlur in="composite1" result="blur" stdDeviation="0.5"/>
<feOffset dx="4.57967e-15" dy="4.57967e-15" result="offset"/>
<feComposite in="SourceGraphic" in2="offset" result="composite2"/>
</filter>
</defs>
<g transform="translate(0 -286)" stroke-width="0">
<circle cx="20" cy="306" r="13" fill="#fff"/>
<path transform="translate(0 286)" d="m20 3.3a17 17 0 0 0-17 17 17 17 0 0 0 17 17 17 17 0 0 0 17-17 17 17 0 0 0-17-17zm0 3.7a13 13 0 0 1 1.3 0.064 13 13 0 0 1 1.3 0.2 13 13 0 0 1 1.3 0.32 13 13 0 0 1 1.2 0.45 13 13 0 0 1 1.2 0.57 13 13 0 0 1 1.1 0.68 13 13 0 0 1 1 0.79 13 13 0 0 1 0.95 0.89 13 13 0 0 1 0.86 0.98 13 13 0 0 1 0.76 1.1 13 13 0 0 1 0.65 1.1 13 13 0 0 1 0.53 1.2 13 13 0 0 1 0.41 1.2 13 13 0 0 1 0.29 1.3 13 13 0 0 1 0.16 1.3 13 13 0 0 1 0.033 0.92 13 13 0 0 1-0.064 1.3 13 13 0 0 1-0.2 1.3 13 13 0 0 1-0.32 1.3 13 13 0 0 1-0.45 1.2 13 13 0 0 1-0.57 1.2 13 13 0 0 1-0.68 1.1 13 13 0 0 1-0.79 1 13 13 0 0 1-0.89 0.95 13 13 0 0 1-0.98 0.86 13 13 0 0 1-1.1 0.76 13 13 0 0 1-1.1 0.65 13 13 0 0 1-1.2 0.53 13 13 0 0 1-1.2 0.41 13 13 0 0 1-1.3 0.29 13 13 0 0 1-1.3 0.16 13 13 0 0 1-0.92 0.033 13 13 0 0 1-1.3-0.064 13 13 0 0 1-1.3-0.2 13 13 0 0 1-1.3-0.32 13 13 0 0 1-1.2-0.45 13 13 0 0 1-1.2-0.57 13 13 0 0 1-1.1-0.68 13 13 0 0 1-1-0.79 13 13 0 0 1-0.95-0.89 13 13 0 0 1-0.86-0.98 13 13 0 0 1-0.76-1.1 13 13 0 0 1-0.65-1.1 13 13 0 0 1-0.53-1.2 13 13 0 0 1-0.41-1.2 13 13 0 0 1-0.29-1.3 13 13 0 0 1-0.16-1.3 13 13 0 0 1-0.033-0.92 13 13 0 0 1 0.064-1.3 13 13 0 0 1 0.2-1.3 13 13 0 0 1 0.32-1.3 13 13 0 0 1 0.45-1.2 13 13 0 0 1 0.57-1.2 13 13 0 0 1 0.68-1.1 13 13 0 0 1 0.79-1 13 13 0 0 1 0.89-0.95 13 13 0 0 1 0.98-0.86 13 13 0 0 1 1.1-0.76 13 13 0 0 1 1.1-0.65 13 13 0 0 1 1.2-0.53 13 13 0 0 1 1.2-0.41 13 13 0 0 1 1.3-0.29 13 13 0 0 1 1.3-0.16 13 13 0 0 1 0.92-0.033z" fill="#1e88e5" filter="url(#a)"/>
</g>
</svg>
